<svg xmlns="http://www.w3.org/2000/svg" width="300" height="300" viewBox="57 38 186 207"><g fill="none" stroke-miterlimit="10" font-family="none" font-size="none" font-weight="none" style="mix-blend-mode:normal" text-anchor="none"><path fill="#443422" d="M150.072 48.513c.042-.002.083-.008.126-.005 2.638.146 10.252 4.837 12.719 6.625a27 27 0 0 1 3.543 3.049c5.356 5.485 7.08 11.408 7.007 18.83 3.351 1.594 6.868 3.23 9.649 5.725 5.746 5.154 6.835 8.885 7.342 16.144 8.629 3.512 16.44 9.698 16.872 19.96.048 1.154-.242 2.12-.534 3.225q.394.284.787.572c6.416 4.71 11.74 9.817 12.98 18.124 1.254 8.388-2.512 15.757-7.346 22.285q.397-.044.797-.063c8.077-.438 17.037 4.29 17.453 12.963.12 2.534-4.135 12.268-5.251 15.061a1127 1127 0 0 1-9.352 22.872 640 640 0 0 0-4.504 10.943c-1.948 4.844-3.243 9.111-7.008 12.898a27.55 27.55 0 0 1-12.976 7.217c-5.14 1.257-12.18.876-17.64.876h-20.561l-28.77.004c-4.115.003-11.985.232-15.85-.231a28.3 28.3 0 0 1-8.073-2.24c-4.243-1.875-8.278-5.202-10.94-9.014-1.484-2.13-2.876-5.91-3.884-8.406l-4.079-10.07a8247 8247 0 0 1-14.102-35.043c-1.333-3.332-1.419-5.88.098-9.199 1.728-3.782 4.344-5.654 8.127-7.053-.554-1.586-1.054-3.422-1.268-5.084a21.7 21.7 0 0 1 4.696-16.673c1.062-1.319 2.536-2.467 3.506-3.798-3.317-16.915 4.97-23.126 18.265-30.93-1.04-4.98-.877-9.786 1.284-14.441 6.955-14.98 28.239-16.999 39.108-28.604 7.413-7.916 2.337-11.652 4.657-15.046.676-.988 2.02-1.273 3.122-1.473"/><path fill="#e4a744" d="M75.545 175.588c.913-1.654 2.018-2.864 3.706-3.757 4.726-2.505 10.567-.689 13.864 3.297 1.119 1.352 1.827 3.249 2.961 4.478a7.03 7.03 0 0 0 3.235 1.954c2.575.71 5.083-.37 6.56-2.512.752-1.091 1.3-2.354 2.11-3.463a11.5 11.5 0 0 1 3.628-3.26c6.242-3.49 13.01-.089 15.98 5.753 1.818 3.573 6.53 4.797 9.7 2.237 1.6-1.294 2.285-2.985 3.562-4.573a12.9 12.9 0 0 1 3.628-3.134 10.6 10.6 0 0 1 5.941-1.432c8.753.444 9.015 8.963 14.385 10.321 2.567.648 5.142-.39 6.76-2.429.831-1.046 1.43-2.266 2.272-3.312a12.4 12.4 0 0 1 3.42-2.98 10.8 10.8 0 0 1 5.65-1.44c8.755.133 9.57 8.818 14.693 10.101 1.023.256 2.073.2 3.087-.072 3.506-.937 3.694-3.698 5.515-6.178.766-1.045 1.841-1.88 2.959-2.521 2.754-1.585 5.834-2.146 8.923-1.3 2.696.738 4.168 2.187 5.52 4.556q-.161.637-.331 1.271c.067 1.348-1.645 5.524-2.602 6.534-.301.534-1.605 3.625-1.733 4.182.194 1.15-4.214 11.383-5.049 12.871l-.253.135c-.303.59-2.02 4.578-2.171 5.155.036.18.12.618.053.78-.45 1.11-2.562 7.1-3.279 7.49l-.158-.057c-.384.63-1.31 2.983-1.64 3.791l-3.08 7.483c-.51 1.232-1.397 3.523-2.058 4.6-2.342 3.818-6.505 6.05-10.734 7.11-4.065 1.016-7.222.77-11.335.763l-9.586-.003-32.636-.005-16.605.003c-2.644.006-6.943.163-9.43-.08a19.8 19.8 0 0 1-8.4-2.754c-6.087-3.749-7.095-8.818-9.654-15.114a1511 1511 0 0 1-7.85-19.538q-2.655-6.796-5.399-13.559c-1.492-3.697-3.222-7.537-4.129-11.392"/><path fill="#1b150d" d="M218.938 187.909c.194 1.15-4.214 11.383-5.049 12.871l-.253.135c1.532-4.165 3.596-8.86 5.302-13.006M211.465 206.07c.036.18.12.618.053.78-.45 1.11-2.562 7.1-3.279 7.49l-.158-.057c1.003-2.625 2.301-5.59 3.384-8.213M223.273 177.193c.067 1.348-1.645 5.524-2.602 6.534.53-1.648 1.922-4.889 2.602-6.534"/><path fill="#e15542" d="M202.542 128.42c3.408.695 8.36 6.17 9.682 9.377 5.144 12.478-6.72 25.27-17.43 29.89-7.982-6.002-17.223-6.36-24.95.218-1.054.9-2.136 2.248-3.171 3.013-1.338.228-3.087-2.298-4.18-3.127-.96-.726-1.663-1.272-2.73-1.899a21.2 21.2 0 0 0-6.334-2.436c-7.1-1.491-13.13 1.708-18.226 6.15-.21.347-2.43 1.165-2.709.883-4.039-4.11-6.547-5.7-12.344-7.031a14 14 0 0 0-.346-.055c-5.615-.8-10.267.406-14.929 3.727-1.294.921-2.288 2.04-3.533 2.95l-.142.103c-2.32-.682-3.238-1.774-4.872-3.468 21.237-20.945 76.93-10.793 106.214-38.296"/><path fill="#e4a744" d="M187.717 105.746c3.675 1.124 6.889 2.613 9.24 5.686 4.028 5.268 3.409 8.811-1.118 13.337-4.566 4.566-9.747 6.894-15.552 9.251-14.686 5.964-30.223 8.316-45.71 11.093-16.57 2.892-29.509 5.063-43.117 15.466-1.242.992-2.157 1.937-3.238 3.092-1.234-.16-2.551-.247-3.797-.351-1-1.764-1.575-3.828-1.765-5.807-1.532-15.974 26.201-23.784 37.917-26.354 6.836-1.5 14.953-2.499 22.045-3.969 8.107-1.68 15.215-3.51 23.017-6.505 9.196-3.53 15.584-7.36 22.078-14.939"/><path fill="#81b343" d="M171.067 83.746c4.25 1.318 8.766 4.49 10.635 8.612.977 2.105 1.251 6.025.27 8.156-2.885 6.093-10.38 9.728-16.223 12.37-13.943 6.301-29.128 7.612-43.92 10.643-7.703 1.579-16.123 3.956-23.434 6.96-2.727 1.148-5.244 2.31-7.718 3.963-.248-2.19-.438-4.76.23-6.886 1.427-4.552 5.38-7.76 9.289-10.165a77.2 77.2 0 0 1 14.582-6.917c17.233-6.058 45.75-9.988 56.29-26.736"/><path fill="#36b4c1" d="M153.989 58.122a27 27 0 0 1 2.124 1.028c4.345 2.319 7.993 6.357 9.372 11.134 3.684 12.768-12.617 20.74-22.291 24.195-8.295 2.962-16.86 4.976-25.306 7.438-3.037.993-5.94 2.04-8.95 3.076-.124-1.21-.277-2.815-.152-4.042 1.154-11.272 15.663-16.112 24.267-20.733 4.484-2.408 8.052-4.429 11.927-7.752 4.037-3.462 8.575-8.868 9.009-14.344"/><text x="150" y="207" text-anchor="middle" dominant-baseline="central" font-family="Georgia, 'Times New Roman', serif" font-size="48" font-weight="bold" fill="#443422">{t}</text></g></svg>